<svg width="25" height="20" viewBox="0 0 25 20" fill="none" xmlns="http://www.w3.org/2000/svg">
<mask id="mask0" mask-type="alpha" maskUnits="userSpaceOnUse" x="0" y="0" width="25" height="20">
<path fill-rule="evenodd" clip-rule="evenodd" d="M0 0.0200195H24.004V20H0V0.0200195Z" fill="white"/>
</mask>
<g mask="url(#mask0)">
<path fill-rule="evenodd" clip-rule="evenodd" d="M4.672 3.199L4.34 1.199H3.1425C2.965 0.5115 2.344 0 1.5995 0C0.717 0 0 0.717 0 1.5995C0 2.4825 0.717 3.199 1.5995 3.199C2.344 3.199 2.965 2.6875 3.1425 2H3.66L3.8615 3.199H3.8455L5.914 13.6055C4.9275 13.6815 4.1075 14.4415 4.01 15.3965C3.953 15.957 4.1385 16.5215 4.5175 16.9395C4.8965 17.3595 5.4375 17.5995 6 17.5995H6.801C6.801 18.924 7.877 20 9.199 20C10.5235 20 11.5995 18.924 11.5995 17.5995H16C16 18.924 17.076 20 18.4005 20C19.7225 20 20.801 18.924 20.801 17.5995H22.4005C22.621 17.5995 22.801 17.422 22.801 17.199C22.801 16.9785 22.621 16.801 22.4005 16.801H20.66C20.33 15.869 19.4435 15.199 18.4005 15.199C17.3575 15.199 16.4705 15.869 16.1405 16.801H11.461C11.129 15.869 10.242 15.199 9.199 15.199C8.156 15.199 7.2695 15.869 6.9395 16.801H6C5.664 16.801 5.34 16.6545 5.1115 16.4025C4.879 16.1465 4.7715 15.8185 4.8065 15.4765C4.867 14.873 5.424 14.4005 6.076 14.4005H6.412L15.332 14.3985L19.8575 14.3965H19.8595L22.01 14.3945C23.1095 14.3945 24.004 13.5 24.004 12.4005V3.1955L4.672 3.199ZM1.5995 2.4005C1.158 2.4005 0.801 2.041 0.801 1.5995C0.801 1.158 1.158 0.801 1.5995 0.801C2.041 0.801 2.4005 1.158 2.4005 1.5995C2.4005 2.041 2.041 2.4005 1.5995 2.4005ZM23.205 5.5585L15.166 13.5975H11.7715L21.373 3.996H23.205V5.5585ZM6.662 4L5.125 5.535L4.8205 4H6.662ZM6.0625 10.256L12.3205 3.998H15.715L6.6465 13.0665C6.6365 13.074 6.635 13.086 6.627 13.094L6.0625 10.256ZM22.01 13.5955H20.824L23.205 11.215V12.4005C23.205 13.0585 22.668 13.5955 22.01 13.5955Z" fill="white"/>
</g>
</svg>
